<svg xmlns="http://www.w3.org/2000/svg" viewBox="71 191 454 450" preserveAspectRatio="xMidYMid meet">
  <g>
    <path transform="matrix(1,0,0,-1,0,841.8898)" d="M285.4925 626.1489C297.4158 628.0472 313.6586 625.8419 325.902 624.5705 330.0231 624.1397 333.6766 622.8556 337.7231 622.4119 343.5973 621.7722 349.5631 619.814 355.028 618.1055 357.0372 617.4805 358.4514 617.5851 360.4969 616.7551L371.1532 613.0267C373.5998 612.3804 373.9581 611.4677 376.168 610.8403 379.6574 609.855 387.4045 606.1158 390.7831 604.2645L404.4087 596.7136C407.2073 595.2932 410.5431 592.8806 413.1306 591.0378L419.4315 586.7419C421.6241 585.4175 423.3603 583.4914 425.4528 582.1625L436.9198 572.4232C439.4024 570.5442 441.6443 567.7243 443.933 565.4356 446.2495 563.1233 448.7598 560.7643 450.7095 558.2112 454.3441 553.4566 458.689 549.4595 462.0059 544.5215L466.3956 538.3253C468.0102 536.2095 469.0468 533.5688 470.478 531.7982 471.0881 531.0434 471.4529 530.8662 471.9838 529.8936 472.7432 528.5007 472.4212 528.5818 473.2787 527.413 473.8289 526.6599 474.1424 526.212 474.6543 525.3673L478.6773 518.4247C480.9042 514.6577 482.3717 510.6521 484.2485 506.5843 491.7759 490.2585 486.4966 492.1226 505.3054 491.9221 516.8854 491.8005 513.2891 494.3047 508.3577 507.587 507.9141 508.7812 507.6326 509.0202 507.1164 510.1486L497.808 529.2451C497.3964 529.9319 497.2235 530.6978 496.7011 531.521 495.9247 532.7433 495.8266 532.0094 495.2889 533.4919 494.8089 534.8123 495.2483 534.8228 494.3676 536.0088L487.5205 546.9704C486.8657 547.8727 486.646 547.6167 485.8866 548.7086L483.8071 551.9401C480.388 557.3066 475.0191 563.6951 470.8043 568.8505 467.6049 572.7665 463.7336 576.1752 460.3507 579.9696L453.2562 586.8615C452.1557 587.8128 452.5546 587.8638 451.4624 588.8707 444.238 595.5469 436.2307 602.4025 427.9014 607.6945L408.2309 619.829C407.346 620.3109 406.9534 620.7803 405.921 621.2942 405.0272 621.7379 404.43 621.8147 403.545 622.3394 402.9412 622.6957 402.1095 623.3995 401.2753 623.8196 400.3135 624.306 399.746 624.306 398.814 624.7967 394.1532 627.2453 388.9168 629.3271 384.2734 631.4366L352.637 642.2125C350.7449 642.7287 348.7527 642.7755 346.8246 643.2236 322.8114 648.8099 293.6214 650.4094 268.2986 646.9285 264.0753 646.3463 260.0994 645.4993 255.8866 644.9491 251.642 644.3989 248.9077 643.2021 244.296 642.5067 241.8111 642.1314 240.8981 641.3975 238.8101 640.8388 236.8284 640.3056 235.0389 640.2481 232.9869 639.4609 229.7191 638.2108 225.7027 637.0464 222.4094 636.0225L211.9876 632.0701C210.8764 631.5432 210.3729 631.3791 209.2212 631.0463L202.2548 627.802C199.2858 626.1766 195.2439 624.8883 192.5603 623.1095 190.9928 622.0706 189.5253 621.5139 187.8956 620.5776L172.4145 611.4549 150.5279 594.7364C146.5027 591.5925 142.8001 588.075 139.1162 584.562L135.7186 581.1579C135.07 580.6159 134.426 579.9526 133.7496 579.3148 132.762 578.3828 133.1076 578.3786 132.2161 577.4593 131.4269 576.6508 131.1559 576.8365 130.2026 575.6995 129.5753 574.9466 129.407 574.5668 128.6711 573.8054 122.7756 567.718 118.4326 560.4571 112.7228 554.1693 111.6306 552.962 112.2429 553.7789 111.4279 552.0682 110.7283 550.5965 110.9395 551.2598 110.0032 550.0865 107.6783 547.1793 106.0892 544.3957 104.3229 541.3819L101.5778 536.9366C101.0169 536.0088 100.5284 535.7424 100.1061 534.9892 99.6111 534.102 99.7157 533.5432 99.1845 532.5129 98.7069 531.5936 98.278 531.3847 97.6915 530.2412L94.0847 523.226C93.0864 521.6134 92.613 519.8343 91.7127 518.4116 90.3796 516.3021 90.6633 515.4043 89.7248 513.5783 89.1468 512.4586 88.846 512.8894 88.2488 511.2791L83.3621 498.3701C82.7501 496.3822 81.9479 495.0213 81.4723 493.4367L76.6879 476.9935C76.3489 475.2145 75.9694 473.3184 75.4509 471.437L71.8866 453.443C69.7133 429.2912 68.7319 418.8801 71.4387 394.001 72.2557 386.4886 74.9667 371.1909 76.8481 363.7766 77.36 361.7566 78.0381 360.8969 78.5693 358.2927 79.9537 351.4842 82.1996 347.6874 83.0231 344.9744 83.3238 343.9738 83.4007 343.302 83.7374 342.2676 85.3929 337.176 87.8414 332.3897 89.9104 327.2556L92.2397 322.3902C92.7196 321.1744 92.5404 320.7563 93.2655 319.6324L99.4706 308.4063C101.5245 304.5733 104.0479 301.0561 106.2703 297.4343 106.7142 296.7134 106.9702 295.8367 107.418 295.1691 111.6476 288.8382 116.498 283.1261 120.973 276.9214L124.2879 273.0606C127.2399 270.1256 129.8656 266.538 132.7045 263.6734L136.0491 260.2029C139.4084 256.5663 143.4824 253.2515 147.1876 249.7706 148.7894 248.2688 151.1549 245.9418 152.9104 244.9052 153.8787 244.3334 153.9556 244.1608 154.83 243.4079 160.958 238.1179 170.6332 231.3266 177.7235 226.9477 179.8243 225.6463 182.5033 224.5969 184.3101 223.2853 185.1591 222.6708 185.5174 222.1889 186.522 221.7453 187.8571 221.1542 187.5543 221.5789 188.8875 220.6809 194.0494 217.2104 204.7995 213.3901 208.0417 211.4643 208.929 210.9331 209.1572 210.5768 210.5308 210.1674 211.6976 209.8196 212.1114 209.8176 213.1821 209.3825L239.5823 200.5965C241.9413 200.2 242.8478 199.6027 244.7929 198.9904L256.8487 196.6465C272.7544 193.1547 307.7419 191.9475 323.3103 194.4729 327.4676 195.1512 331.3474 195.601 335.573 196.1878 337.8957 196.5163 339.357 196.8469 341.4152 197.5209 341.7905 197.6403 355.621 200.2105 358.8738 201.2919 361.5335 202.1709 361.0687 202.269 364.3172 203.0196 369.2208 204.1523 375.4981 206.5456 380.065 208.4845 383.3668 209.8837 386.6624 211.3574 390.0005 212.55 391.805 213.1897 393.0698 214.1155 394.9169 214.8321 397.0862 215.6703 397.4168 216.3807 399.7502 217.1869 402.5914 218.1745 405.7994 220.6403 408.8154 222.1356 412.5376 223.9741 418.9941 227.6493 422.0507 230.0916 426.0138 233.2528 430.4205 235.6948 434.4902 238.8518 437.0734 240.8547 439.9614 243.2798 442.3419 245.016 444.1249 246.3194 450.7308 251.8458 451.9998 253.5117L457.2366 258.4964C458.8917 260.2797 459.474 260.0025 460.982 261.9456 462.2533 263.5838 463.0958 264.5756 464.2603 265.864L469.2963 271.4139C470.7808 273.21 472.9224 275.1233 474.2725 277.0279 475.1705 278.2993 475.1875 277.6997 476.0623 279.0286L480.5053 285.1824C481.5717 286.6329 482.3589 287.8058 483.323 289.1968L486.4008 293.294C487.9556 295.1776 489.3806 297.8972 490.6049 300.062L493.1646 304.3324C494.7471 306.4354 496.0845 308.4341 497.0486 311.0533 497.7524 312.9752 504.9173 325.5919 506.4593 330.0157 507.1462 331.9886 508.0442 333.2364 508.5882 335.0942 509.3966 337.8586 509.9916 338.1636 510.7039 340.1943 511.363 342.0777 511.6363 343.4471 512.4297 345.2601 514.1361 349.1507 516.028 356.9893 517.5595 361.3277 518.178 363.0813 518.2761 365.0372 518.7027 367.0081 519.1571 369.0961 519.8672 370.5593 520.2896 372.6071 520.7227 374.6996 520.9061 376.647 521.2687 378.8141 521.5907 380.7488 522.2798 382.3228 522.6126 384.6458 522.9176 386.7616 523.0006 388.7345 523.2183 390.8889 523.6597 395.2743 524.4491 399.4359 524.7754 403.8148 525.1017 408.166 525.3236 412.6839 525.3661 417.1056 525.5198 433.5829 527.1046 431.1128 510.9834 431.1108H383.4159C379.7427 431.1108 372.5697 432.3351 371.5075 429.0225 370.938 427.2523 371.418 417.6794 371.2686 414.8274 370.9358 408.3814 373.8047 408.74 379.2523 408.7548L492.8125 408.742C495.3509 408.7293 497.6011 408.9192 500.0411 408.9702 503.5073 409.0428 502.6008 406.8822 502.5005 404.2264 502.3193 399.3783 501.5214 396.5009 500.9264 392.0366 500.3442 387.6809 500.0562 383.6092 498.7976 379.6929 498.1898 377.8072 497.9744 375.666 497.6651 373.6287 497.3686 371.6813 496.5644 370.1585 496.1015 368.3923 495.6324 366.607 495.5085 364.0538 494.858 362.435L490.3064 349.5688C489.8755 348.3978 489.6153 348.5129 489.0906 347.3909 487.9089 344.8655 486.4796 340.0747 485.0036 337.0949L480.4027 327.6907C479.522 326.1591 478.8371 323.9623 478.063 322.8318 477.2758 321.6821 477.2653 321.9188 476.6508 320.4683 475.7037 318.2224 465.9327 303.1123 464.3308 300.9878 463.71 300.1623 463.2409 299.8423 462.6051 298.938L459.796 294.9301C459.0366 293.8742 459.0346 294.3711 458.0895 293.2279 454.4039 288.7807 449.2015 281.9937 444.882 278.0561 444.3469 277.5677 444.4662 277.8109 443.8732 277.1538L422.1916 257.959C420.5854 256.5683 415.8096 252.8889 414.0349 252.0933L407.5251 247.6355C400.9918 243.22 393.3791 239.8181 387.5454 236.2133 384.5336 234.3555 365.9083 226.8666 362.2802 225.8875 360.1641 225.3138 358.9379 224.6992 357.1886 224.1961 349.67 222.031 342.0465 219.7998 334.2121 218.7442 330.0528 218.1852 325.853 217.3768 321.8876 216.72 310.2032 214.7746 293.2546 215.6363 281.5999 216.112 275.4632 216.3614 262.3774 218.1169 256.4583 219.3562 254.2144 219.8276 253.2781 220.6828 250.9169 221.0264 246.7534 221.6299 243.2316 222.6753 239.2642 223.7417L218.3227 231.207C217.3224 231.6807 217.2178 231.9537 216.1491 232.4143L208.8201 235.7033C207.5873 236.2238 207.7688 236.3882 206.67 236.9511 205.8831 237.3588 205.1793 237.5507 204.2685 237.9515 201.8004 239.0479 197.2273 241.2961 195.137 242.8404 193.8124 243.8195 194.4737 243.8685 192.9912 244.4913 191.7094 245.033 191.8715 244.7345 190.6662 245.5515L179.9844 252.6542C178.8134 253.6483 179.6922 253.2685 178.1286 254.2178 172.9539 257.349 166.8237 262.7028 162.3039 266.7832L147.8061 280.6648C146.4965 281.9764 145.6092 283.0643 144.4425 284.4978L137.7471 292.1828C135.9553 293.9533 124.6439 309.7502 123.0335 312.6915L120.3418 317.1815C119.48 318.4719 118.5542 320.4748 117.8759 321.9188L104.3614 350.7951C101.6334 357.9664 100.2427 365.0159 97.9668 372.4024 95.5585 380.2198 94.7843 388.3252 93.6751 396.4476 91.2328 414.3283 91.7895 431.5864 94.0229 449.4801 94.8484 456.0837 95.4198 456.6597 96.2495 461.5997 97.3715 468.2823 97.988 468.3634 98.9478 472.9686L102.0365 484.2414C102.7191 486.0459 103.4271 487.5197 104.0094 489.4586 104.2634 490.3053 104.4298 491.2546 104.7881 492.1055L118.3774 521.2551C119.0514 522.5839 119.0897 522.3728 119.7337 523.3048L124.979 532.0607C127.6515 536.2671 130.5544 540.6866 133.8137 544.449 134.5388 545.2875 134.3407 545.5497 135.1213 546.5565L138.4914 550.3618C138.918 550.893 139.5323 551.9211 139.8906 552.3775 142.0364 555.1206 147.2922 560.2632 148.3821 561.6794 149.3929 562.9955 148.7061 562.4898 149.8901 563.565 151.0588 564.6314 152.4263 565.8494 153.5097 567.142 154.6401 568.4879 155.6853 569.4327 157.2148 570.64L174.814 585.1933C177.2563 587.1538 184.4379 592.6119 186.8995 593.9388L193.5992 597.8271C194.8918 598.7636 196.3743 599.5378 197.8288 600.4273 203.684 604.0148 210.3239 606.6065 216.8232 609.8187 222.1342 612.4425 243.3362 619.7349 249.0035 620.456 251.7786 620.8101 252.3183 621.4031 254.5963 621.9918L272.524 624.8991C276.918 625.2999 281.1413 625.4578 285.4925 626.1489" fill="#C9A24D" fill-rule="evenodd"/>
    <path transform="matrix(1,0,0,-1,0,841.8898)" d="M316.6044 601.4511C316.8176 603.4198 316.3484 606.0521 314.979 606.837 314.0725 607.3574 309.8021 607.4833 308.533 607.5238 303.6402 607.6772 298.6231 607.803 293.7044 607.703 289.0525 607.6091 283.9099 607.5493 279.3538 607.0586 274.9258 606.5853 270.8623 605.5826 266.4706 605.1603 261.8144 604.7101 258.6339 603.36 254.2399 602.699 251.5056 602.2851 250.7355 601.6921 248.3872 600.9817 246.6017 600.44 244.328 600.2053 242.5833 599.5763L231.592 595.8136C229.5102 595.1693 228.2559 594.0967 226.2617 593.5654 223.6062 592.8593 223.4823 592.3922 221.2469 591.3899 214.914 588.5529 209.9679 585.9465 204.0273 582.4888 203.0525 581.9193 202.6346 581.8317 201.7003 581.3966 200.1623 580.678 200.8301 580.7591 199.5163 579.812 198.8016 579.2958 197.797 578.8477 197.1079 578.4233L187.1597 571.7299 168.2082 555.8479C167.3804 555.1673 167.3932 554.8793 166.2843 553.9898 163.3941 551.6694 156.8925 543.7942 154.0664 540.4839 152.9274 539.1465 151.8352 537.7493 150.6025 536.3524 148.928 534.4475 149.0879 533.8417 147.3945 532.37L141.518 523.499C139.7242 520.6833 137.5911 517.5799 135.7654 514.4913 135.326 513.7427 134.9847 512.7678 134.475 511.9764 132.3207 508.6086 129.5093 503.566 128.1549 499.7588 127.387 497.6022 126.7407 497.2334 125.945 494.7803 125.3458 492.929 124.3134 491.5168 123.6648 489.4713L116.4362 467.1646C116.0374 464.7351 115.869 463.5513 115.069 461.3457 113.7784 457.7859 113.6548 452.8182 112.7356 448.9061 110.4851 439.312 110.9013 416.7899 111.2638 406.8714 111.4985 400.5108 113.1259 386.7361 114.8598 380.9962 115.5489 378.7223 116.0629 377.5238 116.4725 375.0259 116.9141 372.3406 117.4986 371.8052 118.1852 369.5528 118.8808 367.2831 118.5712 365.6066 119.6357 363.4353 120.7704 361.1146 120.6618 360.2103 121.4382 358.0174 121.756 357.1217 122.2807 356.292 122.6517 355.4493 123.0868 354.4597 123.2853 353.5146 123.6095 352.6189 126.7577 343.8992 131.0771 336.0351 135.5202 327.8228L142.5716 316.3218C143.1499 315.36 143.4484 315.3855 144.2526 314.2037 145.4108 312.5061 146.0591 311.7146 147.1725 309.9399 148.2029 308.2975 147.979 309.3897 148.9215 307.9009 149.7535 306.591 149.2566 306.8237 150.4295 305.627 152.8058 303.2062 154.6787 299.9426 157.1805 297.6134 158.5777 296.3143 157.8098 297.0845 158.9723 295.617L162.498 291.9461C163.4644 290.9095 163.027 290.967 164.2833 289.9624 167.7986 287.151 170.1938 283.6403 173.7794 280.9035 174.6179 280.2617 174.9376 279.9822 175.6672 279.3807 179.9269 275.8635 183.587 272.5466 188.0855 269.4665 189.5871 268.4384 190.9052 267.3592 192.3089 266.5018 193.7401 265.6335 195.3162 264.4605 196.8072 263.4282 198.1723 262.4854 199.9128 261.4167 201.1776 260.6125 201.9969 260.0878 202.8138 259.9214 203.7798 259.4265 204.8743 258.8593 204.7141 258.5265 208.4641 256.549L213.3485 254.2263C214.6966 253.5993 214.494 253.3538 215.697 252.8014 216.6951 252.345 217.525 252.1786 218.3995 251.7029L223.2711 249.3952C227.7334 247.019 227.4072 247.8637 231.0352 246.17 234.239 244.6727 249.5857 240.0205 253.5083 239.0865 266.2849 236.0404 279.326 234.4983 292.5527 233.9266 297.305 233.7197 302.5672 233.9374 307.345 234.0269 311.9672 234.108 316.6172 233.3571 316.6149 239.1823 316.6087 250.0285 318.8908 257.3022 312.3683 256.8733 310.1692 256.7262 307.7269 256.6281 305.4487 256.4552 295.4047 255.7023 274.5802 256.722 264.7621 259.4735 261.038 260.5164 256.3347 261.2565 253.0712 262.5534 251.1173 263.334 248.8394 263.3919 247.1309 264.1405L236.406 268.2017C233.5479 269.0249 233.6312 269.797 231.5684 270.5502 230.3569 270.9916 229.843 270.8252 228.6805 271.461 226.3533 272.7258 223.8471 274.3767 221.4048 275.1508 219.0288 275.904 219.02 276.6376 216.7549 277.6912 213.5597 279.1738 204.1021 285.5109 201.1499 287.8294L188.7489 297.7648C186.2617 300.5164 182.6569 303.3448 179.5192 306.7277L170.6505 316.3924C167.0692 320.4853 164.4625 324.9369 161.1692 329.2308 158.5179 332.6882 156.4169 336.6065 154.2478 340.4823 153.8189 341.25 153.4201 342.0351 152.8719 342.8904 150.7198 346.2435 147.8744 351.7209 146.6586 355.2253L137.3224 382.6599C136.5993 386.062 132.5146 406.1313 133.9353 408.0339 135.0465 409.5269 145.3788 408.8571 147.9682 408.8401 192.2491 408.5223 236.5512 408.7463 280.834 408.7463 316.743 408.7463 313.3857 405.4167 313.3877 420.514 313.3877 424.6455 315.1006 431.1556 309.2817 431.2471 289.8609 431.5521 269.7361 431.1108 250.1725 431.1108L139.2613 431.117C132.0199 431.098 132.6404 430.0634 134.6712 445.5533 135.2279 449.7956 136.4287 453.3642 137.1112 457.9138L143.2885 477.8104C143.9306 479.5849 144.3889 481.3682 145.3467 482.9423 145.8309 483.7399 146.1231 484.6827 146.3984 485.6769L160.5229 512.0385C161.2375 513.0729 161.6683 513.2307 162.2591 514.0967 163.0355 515.2357 162.7072 515.2785 163.7053 516.4495 164.3581 517.2151 164.5971 517.5224 165.1986 518.3606 169.7888 524.7573 171.1134 525.3418 175.3237 530.5782 179.2208 535.4266 181.8422 537.103 184.4124 540.0337L189.0581 544.4578C191.1526 546.4052 194.3181 548.3526 196.2227 550.1633 199.0959 552.9022 208.4511 559.781 211.2837 560.8431 213.7731 561.7797 213.5384 562.4218 216.051 563.6565 217.8085 564.5248 218.2652 565.2074 220.6755 566.2077 222.3264 566.8923 221.6991 566.9053 223.0364 567.6389L235.8666 573.368C239.2237 574.7077 243.042 576.7404 246.5634 577.389 249.573 577.9434 249.6305 578.0353 252.1304 579.0611L263.7958 582.1498C265.8583 582.4375 268.4585 582.5358 270.47 583.0007 272.59 583.4957 274.3713 583.9968 276.4168 584.2655 284.6565 585.347 302.8997 586.0145 311.675 584.9118 319.9958 583.8667 315.6979 593.1218 316.6044 601.4511" fill="#C9A24D" fill-rule="evenodd"/>
  </g>
</svg>
